<svg width="45" height="46" viewBox="0 0 45 46" fill="none" xmlns="http://www.w3.org/2000/svg">
<circle cx="22.5" cy="23.4978" r="22.5" fill="#C32BA3"/>
<path d="M33.2362 19.0638C33.2241 18.1549 33.0539 17.2551 32.7334 16.4046C32.4554 15.6872 32.0308 15.0356 31.4868 14.4916C30.9427 13.9475 30.2912 13.523 29.5738 13.245C28.7342 12.9298 27.8472 12.7594 26.9506 12.741C25.7962 12.6894 25.4302 12.675 22.4998 12.675C19.5694 12.675 19.1938 12.675 18.0478 12.741C17.1516 12.7595 16.265 12.9299 15.4258 13.245C14.7082 13.5228 14.0566 13.9473 13.5125 14.4913C12.9685 15.0354 12.544 15.6871 12.2662 16.4046C11.9504 17.2435 11.7803 18.1303 11.7634 19.0266C11.7118 20.1822 11.6962 20.5482 11.6962 23.4786C11.6962 26.409 11.6962 26.7834 11.7634 27.9306C11.7814 28.8282 11.9506 29.7138 12.2662 30.555C12.5444 31.2723 12.9692 31.9237 13.5135 32.4675C14.0577 33.0114 14.7094 33.4357 15.427 33.7134C16.2639 34.0412 17.1506 34.2238 18.049 34.2534C19.2046 34.305 19.5706 34.3206 22.501 34.3206C25.4314 34.3206 25.807 34.3206 26.953 34.2534C27.8496 34.2357 28.7366 34.0657 29.5762 33.7506C30.2934 33.4723 30.9448 33.0476 31.4888 32.5036C32.0328 31.9596 32.4575 31.3082 32.7358 30.591C33.0514 29.751 33.2206 28.8654 33.2386 27.9666C33.2902 26.8122 33.3058 26.4462 33.3058 23.5146C33.3034 20.5842 33.3034 20.2122 33.2362 19.0638ZM22.4926 29.0202C19.4278 29.0202 16.945 26.5374 16.945 23.4726C16.945 20.4078 19.4278 17.925 22.4926 17.925C23.9639 17.925 25.3749 18.5095 26.4153 19.5498C27.4557 20.5902 28.0402 22.0013 28.0402 23.4726C28.0402 24.9439 27.4557 26.355 26.4153 27.3953C25.3749 28.4357 23.9639 29.0202 22.4926 29.0202ZM28.261 19.0134C27.5446 19.0134 26.9674 18.435 26.9674 17.7198C26.9674 17.55 27.0008 17.3819 27.0658 17.225C27.1308 17.0681 27.226 16.9256 27.3461 16.8055C27.4661 16.6854 27.6087 16.5902 27.7656 16.5252C27.9224 16.4602 28.0906 16.4268 28.2604 16.4268C28.4302 16.4268 28.5983 16.4602 28.7552 16.5252C28.9121 16.5902 29.0546 16.6854 29.1747 16.8055C29.2947 16.9256 29.39 17.0681 29.4549 17.225C29.5199 17.3819 29.5534 17.55 29.5534 17.7198C29.5534 18.435 28.975 19.0134 28.261 19.0134Z" fill="white"/>
<path d="M22.4926 27.0762C24.4829 27.0762 26.0962 25.4628 26.0962 23.4726C26.0962 21.4823 24.4829 19.869 22.4926 19.869C20.5024 19.869 18.889 21.4823 18.889 23.4726C18.889 25.4628 20.5024 27.0762 22.4926 27.0762Z" fill="white"/>
</svg>
