<svg xmlns="http://www.w3.org/2000/svg" version="1.1" xmlns:xlink="http://www.w3.org/1999/xlink" xmlns:svgjs="http://svgjs.com/svgjs" width="32" height="32"><svg width="32" height="32" viewBox="0 0 32 32" fill="none" xmlns="http://www.w3.org/2000/svg">

<path d="M29.1875 10.9999C28.8798 10.9899 28.5744 11.056 28.2984 11.1922C28.0223 11.3285 27.7842 11.5308 27.605 11.7811C27.5898 11.8029 27.568 11.8193 27.5429 11.8279C27.5177 11.8365 27.4905 11.8368 27.4651 11.8289C27.4398 11.8209 27.4176 11.8051 27.4019 11.7837C27.3861 11.7623 27.3776 11.7365 27.3775 11.7099V9.41926C27.3775 8.12239 26.3562 7.03114 25.06 7.00051C24.7432 6.99251 24.4279 7.048 24.1328 7.16373C23.8378 7.27945 23.5688 7.45307 23.3419 7.67434C23.115 7.89562 22.9347 8.16008 22.8115 8.45213C22.6884 8.74419 22.625 9.05794 22.625 9.37489V14.4999C22.625 14.533 22.6118 14.5648 22.5884 14.5883C22.5649 14.6117 22.5332 14.6249 22.5 14.6249H9.5C9.46685 14.6249 9.43505 14.6117 9.41161 14.5883C9.38817 14.5648 9.375 14.533 9.375 14.4999V9.41926C9.375 8.12239 8.35375 7.03114 7.0575 7.00051C6.74086 6.99285 6.42588 7.04859 6.1311 7.16447C5.83633 7.28035 5.56771 7.45402 5.34105 7.67526C5.11439 7.8965 4.93428 8.16084 4.81131 8.45273C4.68834 8.74462 4.62499 9.05815 4.625 9.37489V11.7111C4.62494 11.7377 4.61641 11.7636 4.60065 11.785C4.58489 11.8064 4.56272 11.8222 4.53736 11.8301C4.512 11.8381 4.48477 11.8377 4.45962 11.8291C4.43447 11.8206 4.41271 11.8042 4.3975 11.7824C4.21824 11.5315 3.97974 11.3287 3.70322 11.1922C3.42669 11.0557 3.12072 10.9896 2.8125 10.9999C1.79375 11.0318 1 11.8943 1 12.9136V19.0836C1 20.103 1.79625 20.9655 2.8125 20.9974C3.12019 21.0074 3.42559 20.9413 3.70164 20.805C3.97768 20.6688 4.21584 20.4665 4.395 20.2161C4.40984 20.1931 4.43184 20.1756 4.45762 20.1663C4.4834 20.1569 4.51153 20.1564 4.53767 20.1646C4.56381 20.1728 4.58652 20.1894 4.6023 20.2119C4.61808 20.2343 4.62606 20.2612 4.625 20.2886V22.5805C4.625 23.8749 5.64625 24.9686 6.9425 24.9999C7.25919 25.0076 7.57422 24.9518 7.86904 24.8359C8.16386 24.72 8.43251 24.5462 8.65917 24.3249C8.88584 24.1036 9.06594 23.8392 9.18888 23.5472C9.31181 23.2553 9.37509 22.9417 9.375 22.6249V17.4999C9.375 17.4667 9.38817 17.4349 9.41161 17.4115C9.43505 17.3881 9.46685 17.3749 9.5 17.3749H22.5C22.5332 17.3749 22.5649 17.3881 22.5884 17.4115C22.6118 17.4349 22.625 17.4667 22.625 17.4999V22.5805C22.625 23.8774 23.6462 24.9686 24.9425 24.9993C25.2591 25.0069 25.5741 24.9512 25.8689 24.8353C26.1637 24.7194 26.4323 24.5458 26.659 24.3245C26.8856 24.1033 27.0657 23.8389 27.1887 23.5471C27.3117 23.2552 27.375 22.9416 27.375 22.6249V20.2886C27.3751 20.2621 27.3836 20.2362 27.3994 20.2148C27.4151 20.1934 27.4373 20.1776 27.4626 20.1696C27.488 20.1617 27.5152 20.1621 27.5404 20.1706C27.5655 20.1792 27.5873 20.1956 27.6025 20.2174C27.7818 20.4683 28.0203 20.6711 28.2968 20.8076C28.5733 20.9441 28.8793 21.0102 29.1875 20.9999C30.2062 20.968 31 20.1055 31 19.0861V12.9149C31 11.8955 30.2038 11.033 29.1875 10.9999Z" fill="black"></path>
</svg><style>@media (prefers-color-scheme: light) { :root { filter: none; } }
@media (prefers-color-scheme: dark) { :root { filter: invert(100%); } }
</style></svg>